<?xml version="1.0" encoding="UTF-8" standalone="no"?>
<!DOCTYPE svg PUBLIC "-//W3C//DTD SVG 1.1//EN" "http://www.w3.org/Graphics/SVG/1.1/DTD/svg11.dtd">
<svg width="100%" height="100%" viewBox="0 0 579 186" version="1.1" xmlns="http://www.w3.org/2000/svg" xmlns:xlink="http://www.w3.org/1999/xlink" xml:space="preserve" style="fill-rule:evenodd;clip-rule:evenodd;stroke-linejoin:round;stroke-miterlimit:1.41421;">
    <g id="Layer1">
        <rect x="7.178" y="9.169" width="565.197" height="154.311" style="fill:rgb(235,235,235);"/>
    </g>
    <rect x="0" y="0" width="578.55" height="185.54"/>
    <path d="M212.43,141.62C188.87,141.62 172.59,127.21 172.59,102.8C172.59,80.42 186.15,61.94 213.59,61.94C241.03,61.94 254.45,80.42 254.45,101.78C254.47,126.2 236.84,141.63 212.43,141.63L212.43,141.62Z" style="fill:white;"/>
    <path d="M545.85,141.62C535.68,141.62 530.09,135.68 529.07,126.36C524.66,134.16 516.86,141.62 504.49,141.62C493.49,141.62 480.93,135.68 480.93,119.75C480.93,100.93 499.07,96.53 516.53,96.53C520.723,96.494 524.915,96.721 529.08,97.21L529.08,94.67C529.08,86.87 528.91,77.55 516.53,77.55C511.95,77.55 508.39,77.89 504.83,79.75L502,90.6L484.54,88.73L487.93,68.9C501.32,63.47 508.1,61.9 520.65,61.9C537.1,61.9 551,70.38 551,87.84L551,121.07C551,125.48 552.69,127.01 556.26,127.01C557.352,126.994 558.436,126.822 559.48,126.5L559.65,138.03C555.422,140.333 550.694,141.569 545.88,141.63L545.85,141.62Z" style="fill:white;"/>
    <path d="M22.22,123.34L22.22,139.95L68.84,139.95L68.84,123.34L54.3,123.34L54.3,96.7C54.3,86.02 58.54,78.56 69.05,78.56C77.7,78.56 82.1,83.65 82.1,96.87L82.1,139.95L114.1,139.95L114.1,123.34L103.98,123.34L103.98,96.7C103.98,86.02 108.22,78.56 118.73,78.56C127.37,78.56 131.78,83.65 131.78,96.87L131.78,139.93L163.78,139.93L163.77,123.34L153.6,123.34L153.6,88.4C153.6,70.26 141.05,61.95 127.32,61.95C115.28,61.95 106.64,68.23 102.4,78.4C98.67,67.21 88.48,61.95 77.48,61.95C66.81,61.95 58.84,66.87 54.26,75L54.26,63.48L21.39,63.48L21.39,80.09L32.39,80.09L32.39,123.34L22.22,123.34Z" style="fill:white;"/>
    <path d="M318,123.34L293.29,123.34L335.69,75L334,63.47L266.8,63.47L264.09,90.26L279.86,91.95L283.25,80.08L307.15,80.08L265.15,128.4L267.35,139.93L334.15,139.93L338.85,113.16L321.56,111.47L318,123.34Z" style="fill:white;"/>
    <rect x="352.62" y="112.47" width="22.89" height="27.46" style="fill:white;"/>
    <path d="M442.13,23.34L420.6,23.34L387.51,139.93L409.07,139.93L442.13,23.34Z" style="fill:white;"/>
    <path d="M486.53,23.34L465,23.34L431.93,139.93L453.49,139.93L486.53,23.34Z" style="fill:white;"/>
    <path d="M503.5,117.21C503.5,122.13 505.87,126.03 512.5,126.03C520.3,126.03 528.61,120.43 529.11,107.72C525.47,107.136 521.795,106.802 518.11,106.72C510.28,106.71 503.5,108.91 503.5,117.21Z"/>
    <path d="M213.27,78.73C223.662,78.765 231.92,85.719 231.95,101.11C231.95,115.69 224.49,124.84 213.13,124.84C201.23,124.84 195.13,114.67 195.13,101.45C195.13,87.066 202.045,78.772 213.27,78.73Z"/>
    <rect x="352.62" y="63.48" width="22.89" height="27.45" style="fill:white;"/>
</svg>
